<?xml version="1.0" standalone="no"?>
<!DOCTYPE svg PUBLIC "-//W3C//DTD SVG 20010904//EN"
 "http://www.w3.org/TR/2001/REC-SVG-20010904/DTD/svg10.dtd">
<svg version="1.0" xmlns="http://www.w3.org/2000/svg"
 width="2000.000000pt" height="2000.000000pt" viewBox="0 0 2000.000000 2000.000000"
 preserveAspectRatio="xMidYMid meet">

<g transform="translate(0.000000,2000.000000) scale(0.100000,-0.100000)"
fill="#000000" stroke="none">
<path d="M12805 17965 c-1144 -613 -2084 -1116 -2090 -1118 -10 -5 -4 -17 115
-242 l69 -130 -307 -164 c-169 -90 -310 -166 -313 -170 -3 -3 67 -142 156
-308 l162 -302 307 164 c170 91 312 165 316 165 5 0 45 -69 90 -152 45 -84 85
-157 89 -161 5 -5 140 62 301 148 160 86 296 153 300 148 17 -18 388 -698 385
-704 -3 -3 -2347 -1259 -5210 -2790 -2862 -1531 -5205 -2787 -5205 -2791 0 -3
439 -828 976 -1832 l977 -1826 51 29 c137 77 4676 2501 4683 2501 8 0 595
-1051 590 -1056 -2 -1 -1776 -922 -1903 -987 l-31 -16 -69 150 c-50 109 -73
149 -84 146 -48 -12 -809 -374 -807 -384 4 -23 462 -1002 468 -1003 10 0 803
370 812 379 5 5 -32 94 -82 200 -62 132 -86 193 -78 198 20 13 1932 1004 1940
1006 7 2 271 -463 265 -468 -2 -1 -398 -213 -880 -471 l-877 -468 33 -61 c18
-33 194 -360 390 -727 l356 -666 0 -770 0 -769 -680 -1324 c-374 -728 -680
-1327 -680 -1331 0 -5 335 -8 744 -8 l744 0 359 700 c197 385 361 700 364 700
3 0 167 -315 365 -700 l359 -700 748 0 749 0 -95 182 c-52 101 -320 622 -596
1159 l-501 977 0 1051 0 1051 -243 0 -244 0 -7 201 c-4 111 -5 203 -3 205 1 2
309 167 682 367 555 298 682 362 691 351 18 -23 1247 -2295 1243 -2298 -2 -2
-231 -121 -509 -266 -693 -361 -680 -354 -680 -363 0 -7 90 -180 525 -1012 35
-66 212 -406 395 -755 183 -349 333 -636 334 -637 1 -1 89 44 196 101 107 56
272 142 365 190 94 49 281 147 417 218 136 71 252 127 257 124 5 -3 111 -195
236 -426 l227 -420 254 0 c140 0 254 2 254 4 0 3 -128 242 -286 532 -157 289
-284 528 -282 529 3 3 453 240 713 375 191 99 289 151 294 156 3 3 -79 161
-449 869 -32 61 -185 353 -340 650 -155 297 -323 618 -373 712 -49 95 -94 173
-100 173 -5 0 -42 -17 -81 -39 -39 -21 -143 -76 -231 -121 -88 -46 -288 -150
-444 -232 -156 -82 -288 -145 -292 -141 -12 13 -1251 2304 -1248 2307 2 2 128
69 279 149 151 81 281 151 289 156 10 7 -30 88 -181 372 -108 200 -293 547
-413 771 -120 224 -221 406 -224 403 -6 -3 -1013 1805 -1018 1829 -2 6 1496
812 3328 1791 1832 979 3337 1785 3345 1790 13 9 -151 320 -960 1834 -537
1004 -978 1826 -980 1828 -2 2 -421 -219 -931 -492 -758 -406 -930 -494 -940
-483 -15 16 -385 686 -385 696 1 4 570 311 1265 682 696 371 1264 678 1262
681 -9 24 -693 1298 -697 1298 -3 0 -941 -501 -2085 -1114z"/>
</g>
</svg>
